<svg id="07909bd7-7770-4cc7-a1a4-a20db7e97a12" data-name="レイヤー 1" xmlns="http://www.w3.org/2000/svg" viewBox="0 0 62 62">
    <defs>
        <style>.e4a23222-142e-4b7b-b038-5aca2ab7913f{fill:none;}.a4a7dd8f-fdf1-43e0-8897-c154d5daba2c{fill:#fff;}</style>
    </defs>
    <title>105_ffffff</title>
    <rect class="e4a23222-142e-4b7b-b038-5aca2ab7913f" width="62" height="62"/>
    <path class="a4a7dd8f-fdf1-43e0-8897-c154d5daba2c" d="M46,30.17a15,15,0,1,0,15,15A15,15,0,0,0,46,30.17Zm7.27,17.14H46a2.14,2.14,0,0,1-2.14-2.14V37.48a2.14,2.14,0,1,1,4.29,0V43h5.13a2.14,2.14,0,0,1,0,4.29Z"/>
    <path class="a4a7dd8f-fdf1-43e0-8897-c154d5daba2c" d="M27.25,45.17a18.63,18.63,0,0,1,1-6.09H23.86V32.31h6.77v2.14a18.87,18.87,0,0,1,6-5.53H34.87V22.15h6.77V27A18.44,18.44,0,0,1,53.5,28V11a2.26,2.26,0,0,0-2.25-2.25H43.34V1.83H33.18V8.77h-11V1.83H12V8.77H3.25A2.26,2.26,0,0,0,1,11V45.9a2.26,2.26,0,0,0,2.25,2.25H27.51A18.71,18.71,0,0,1,27.25,45.17ZM34.87,3.52h6.77V15.38H34.87Zm-11,18.63h6.77v6.77H23.86ZM19.63,39.09H12.85V32.31h6.77Zm0-10.16H12.85V22.15h6.77Zm.85-13.55H13.7V3.52h6.77Z"/>
</svg>
