<svg id="ce75364d-f97a-4998-8c74-5f2a414abc5c" data-name="レイヤー 1" xmlns="http://www.w3.org/2000/svg" viewBox="0 0 62 62">
    <defs>
        <style>.c2d05a95-1ee9-4ab4-a68d-424e68ce4c4d{fill:none;}.\31 32669c2-f66a-4b7f-9e8e-ba1f04ce8c21{fill:#fff;}</style>
    </defs>
    <title>111_ffffff</title>
    <rect class="c2d05a95-1ee9-4ab4-a68d-424e68ce4c4d" width="62" height="62"/>
    <path class="132669c2-f66a-4b7f-9e8e-ba1f04ce8c21" d="M59.13,30.91A27.42,27.42,0,0,0,43.64,6.31L37.57,17.15a15,15,0,0,1,1,27V39.76L24.3,53l14.29,8V57.41A27.43,27.43,0,0,0,59.13,30.91Z"/>
    <path class="132669c2-f66a-4b7f-9e8e-ba1f04ce8c21" d="M2.88,31.09A27.42,27.42,0,0,0,18.36,55.69l6.07-10.84a15,15,0,0,1-1-27v4.43L37.7,9,23.41,1V4.59A27.43,27.43,0,0,0,2.88,31.09Z"/>
</svg>
