<svg xmlns="http://www.w3.org/2000/svg" viewBox="0 0 60 60">
    <defs>
        <style>.cls-1{fill:#fff;}</style>
    </defs>
    <title>49_ffffff</title>
    <g id="レイヤー_2" data-name="レイヤー 2">
        <g id="レイヤー_1-2" data-name="レイヤー 1">
            <rect class="cls-1" x="40" y="23" width="7" height="7"/>
            <rect class="cls-1" x="30" y="23" width="7" height="7"/>
            <rect class="cls-1" x="20" y="23" width="7" height="7"/>
            <rect class="cls-1" x="20" y="33" width="7" height="7"/>
            <rect class="cls-1" x="10" y="33" width="7" height="7"/>
            <rect class="cls-1" x="20" y="43" width="7" height="7"/>
            <rect class="cls-1" x="10" y="43" width="7" height="7"/>
            <path class="cls-1" d="M21,12H16a1,1,0,0,1-1-1V1a1,1,0,0,1,1-1h5a1,1,0,0,1,1,1V11A1,1,0,0,1,21,12Z"/>
            <path class="cls-1" d="M50,8V10a5,5,0,0,1-5,5H43a5,5,0,0,1-5-5V8H25v2a5,5,0,0,1-5,5H17a5,5,0,0,1-5-5V8H9.91A9.91,9.91,0,0,0,0,17.91V50.09A9.91,9.91,0,0,0,9.91,60H50.09A9.91,9.91,0,0,0,60,50.09V15.42C60,9.94,55.52,8,50,8Zm0,47H10a5,5,0,0,1-5-5V18H55V50A5,5,0,0,1,50,55Z"/><path class="cls-1" d="M46,12H41a1,1,0,0,1-1-1V1a1,1,0,0,1,1-1h5a1,1,0,0,1,1,1V11A1,1,0,0,1,46,12Z"/><polygon class="cls-1" points="38.4 49.82 29.46 43.57 32.09 39.43 37.41 43.14 45.56 32.48 49.27 35.59 38.4 49.82"/>
        </g>
    </g>
</svg>
