<svg id="SvgjsSvg1016" width="288" height="288" xmlns="http://www.w3.org/2000/svg" version="1.1" xmlns:xlink="http://www.w3.org/1999/xlink" xmlns:svgjs="http://svgjs.com/svgjs"><defs id="SvgjsDefs1017"></defs><g id="SvgjsG1018"><svg xmlns="http://www.w3.org/2000/svg" width="288" height="288" fill="none" viewBox="0 0 20 21"><g clip-path="url(#clip0_231_6203)" fill="#000000" class="color000 svgShape"><path fill="#ffffff" d="M14.9333 10.1833C14.8911 10.0823 14.8319 9.98933 14.7583 9.90833L10.5917 5.74166C10.514 5.66396 10.4217 5.60233 10.3202 5.56028C10.2187 5.51823 10.1099 5.49658 10 5.49658C9.77808 5.49658 9.56525 5.58474 9.40833 5.74166C9.33063 5.81936 9.269 5.9116 9.22695 6.01312C9.1849 6.11464 9.16326 6.22344 9.16326 6.33333C9.16326 6.55524 9.25141 6.76807 9.40833 6.92499L12.1583 9.66666H5.83333C5.61232 9.66666 5.40036 9.75446 5.24408 9.91074C5.0878 10.067 5 10.279 5 10.5C5 10.721 5.0878 10.933 5.24408 11.0892C5.40036 11.2455 5.61232 11.3333 5.83333 11.3333H12.1583L9.40833 14.075C9.25312 14.2311 9.16601 14.4423 9.16601 14.6625C9.16601 14.8826 9.25312 15.0939 9.40833 15.25V15.25C9.56447 15.4052 9.77568 15.4923 9.99583 15.4923C10.216 15.4923 10.4272 15.4052 10.5833 15.25V15.25L14.75 11.0833C14.8236 11.0023 14.8828 10.9093 14.925 10.8083C15.0088 10.609 15.0118 10.3848 14.9333 10.1833V10.1833Z" class="color3E3A39 svgShape"></path></g><defs><clipPath id="clip0_231_6203"><rect width="10" height="10.008" fill="#ffffff" transform="translate(5 5.5)" class="colorfff svgShape"></rect></clipPath></defs></svg></g></svg>