<svg width="20" height="20" viewBox="0 0 20 20" fill="none" xmlns="http://www.w3.org/2000/svg">
<path d="M10.0003 15.8334C10.1651 15.8334 10.3263 15.7845 10.4633 15.6929C10.6003 15.6014 10.7072 15.4712 10.7702 15.3189C10.8333 15.1667 10.8498 14.9991 10.8176 14.8375C10.7855 14.6758 10.7061 14.5273 10.5896 14.4108C10.473 14.2942 10.3246 14.2149 10.1629 14.1827C10.0013 14.1506 9.83369 14.1671 9.68142 14.2301C9.52915 14.2932 9.399 14.4 9.30743 14.5371C9.21587 14.6741 9.16699 14.8352 9.16699 15C9.16699 15.2211 9.25479 15.433 9.41107 15.5893C9.56735 15.7456 9.77931 15.8334 10.0003 15.8334ZM14.167 15.8334C14.3318 15.8334 14.4929 15.7845 14.63 15.6929C14.767 15.6014 14.8738 15.4712 14.9369 15.3189C15 15.1667 15.0165 14.9991 14.9843 14.8375C14.9522 14.6758 14.8728 14.5273 14.7562 14.4108C14.6397 14.2942 14.4912 14.2149 14.3296 14.1827C14.1679 14.1506 14.0004 14.1671 13.8481 14.2301C13.6958 14.2932 13.5657 14.4 13.4741 14.5371C13.3825 14.6741 13.3337 14.8352 13.3337 15C13.3337 15.2211 13.4215 15.433 13.5777 15.5893C13.734 15.7456 13.946 15.8334 14.167 15.8334ZM14.167 12.5C14.3318 12.5 14.4929 12.4512 14.63 12.3596C14.767 12.268 14.8738 12.1379 14.9369 11.9856C15 11.8333 15.0165 11.6658 14.9843 11.5041C14.9522 11.3425 14.8728 11.194 14.7562 11.0775C14.6397 10.9609 14.4912 10.8815 14.3296 10.8494C14.1679 10.8172 14.0004 10.8337 13.8481 10.8968C13.6958 10.9599 13.5657 11.0667 13.4741 11.2037C13.3825 11.3408 13.3337 11.5019 13.3337 11.6667C13.3337 11.8877 13.4215 12.0997 13.5777 12.256C13.734 12.4122 13.946 12.5 14.167 12.5ZM10.0003 12.5C10.1651 12.5 10.3263 12.4512 10.4633 12.3596C10.6003 12.268 10.7072 12.1379 10.7702 11.9856C10.8333 11.8333 10.8498 11.6658 10.8176 11.5041C10.7855 11.3425 10.7061 11.194 10.5896 11.0775C10.473 10.9609 10.3246 10.8815 10.1629 10.8494C10.0013 10.8172 9.83369 10.8337 9.68142 10.8968C9.52915 10.9599 9.399 11.0667 9.30743 11.2037C9.21587 11.3408 9.16699 11.5019 9.16699 11.6667C9.16699 11.8877 9.25479 12.0997 9.41107 12.256C9.56735 12.4122 9.77931 12.5 10.0003 12.5ZM15.8337 2.50004H15.0003V1.66671C15.0003 1.44569 14.9125 1.23373 14.7562 1.07745C14.6 0.921171 14.388 0.833374 14.167 0.833374C13.946 0.833374 13.734 0.921171 13.5777 1.07745C13.4215 1.23373 13.3337 1.44569 13.3337 1.66671V2.50004H6.66699V1.66671C6.66699 1.44569 6.5792 1.23373 6.42291 1.07745C6.26663 0.921171 6.05467 0.833374 5.83366 0.833374C5.61265 0.833374 5.40068 0.921171 5.2444 1.07745C5.08812 1.23373 5.00033 1.44569 5.00033 1.66671V2.50004H4.16699C3.50395 2.50004 2.86807 2.76343 2.39923 3.23227C1.93038 3.70111 1.66699 4.337 1.66699 5.00004V16.6667C1.66699 17.3297 1.93038 17.9656 2.39923 18.4345C2.86807 18.9033 3.50395 19.1667 4.16699 19.1667H15.8337C16.4967 19.1667 17.1326 18.9033 17.6014 18.4345C18.0703 17.9656 18.3337 17.3297 18.3337 16.6667V5.00004C18.3337 4.337 18.0703 3.70111 17.6014 3.23227C17.1326 2.76343 16.4967 2.50004 15.8337 2.50004ZM16.667 16.6667C16.667 16.8877 16.5792 17.0997 16.4229 17.256C16.2666 17.4122 16.0547 17.5 15.8337 17.5H4.16699C3.94598 17.5 3.73402 17.4122 3.57774 17.256C3.42146 17.0997 3.33366 16.8877 3.33366 16.6667V9.16671H16.667V16.6667ZM16.667 7.50004H3.33366V5.00004C3.33366 4.77903 3.42146 4.56707 3.57774 4.41078C3.73402 4.2545 3.94598 4.16671 4.16699 4.16671H5.00033V5.00004C5.00033 5.22105 5.08812 5.43302 5.2444 5.5893C5.40068 5.74558 5.61265 5.83337 5.83366 5.83337C6.05467 5.83337 6.26663 5.74558 6.42291 5.5893C6.5792 5.43302 6.66699 5.22105 6.66699 5.00004V4.16671H13.3337V5.00004C13.3337 5.22105 13.4215 5.43302 13.5777 5.5893C13.734 5.74558 13.946 5.83337 14.167 5.83337C14.388 5.83337 14.6 5.74558 14.7562 5.5893C14.9125 5.43302 15.0003 5.22105 15.0003 5.00004V4.16671H15.8337C16.0547 4.16671 16.2666 4.2545 16.4229 4.41078C16.5792 4.56707 16.667 4.77903 16.667 5.00004V7.50004ZM5.83366 12.5C5.99848 12.5 6.15959 12.4512 6.29663 12.3596C6.43368 12.268 6.54049 12.1379 6.60356 11.9856C6.66663 11.8333 6.68313 11.6658 6.65098 11.5041C6.61883 11.3425 6.53946 11.194 6.42291 11.0775C6.30637 10.9609 6.15789 10.8815 5.99623 10.8494C5.83458 10.8172 5.66703 10.8337 5.51476 10.8968C5.36248 10.9599 5.23234 11.0667 5.14077 11.2037C5.0492 11.3408 5.00033 11.5019 5.00033 11.6667C5.00033 11.8877 5.08812 12.0997 5.2444 12.256C5.40068 12.4122 5.61265 12.5 5.83366 12.5ZM5.83366 15.8334C5.99848 15.8334 6.15959 15.7845 6.29663 15.6929C6.43368 15.6014 6.54049 15.4712 6.60356 15.3189C6.66663 15.1667 6.68313 14.9991 6.65098 14.8375C6.61883 14.6758 6.53946 14.5273 6.42291 14.4108C6.30637 14.2942 6.15789 14.2149 5.99623 14.1827C5.83458 14.1506 5.66703 14.1671 5.51476 14.2301C5.36248 14.2932 5.23234 14.4 5.14077 14.5371C5.0492 14.6741 5.00033 14.8352 5.00033 15C5.00033 15.2211 5.08812 15.433 5.2444 15.5893C5.40068 15.7456 5.61265 15.8334 5.83366 15.8334Z" fill="white"/>
</svg>
