<svg width="47" height="47" viewBox="0 0 47 47" fill="none" xmlns="http://www.w3.org/2000/svg">
<g clip-path="url(#clip0_6823_193270)">
<path fill-rule="evenodd" clip-rule="evenodd" d="M34.0299 15.6567C33.815 15.0658 33.4659 14.5421 33.0228 14.1124C32.5931 13.6693 32.0559 13.3201 31.4785 13.1053C31.0085 12.9173 30.2968 12.7024 28.9808 12.6353C27.5573 12.5681 27.1276 12.5547 23.5422 12.5547C19.9433 12.5547 19.5136 12.5547 18.1036 12.6353C16.7876 12.689 16.0759 12.9173 15.6059 13.1053C15.015 13.3201 14.4913 13.6693 14.0616 14.1124C13.6185 14.5421 13.2693 15.0793 13.0545 15.6567C12.8665 16.1267 12.6516 16.8384 12.5845 18.1544C12.5173 19.5778 12.5039 19.9941 12.5039 23.593C12.5039 27.1918 12.5173 27.6215 12.5845 29.0315C12.6382 30.3475 12.8665 31.0593 13.0545 31.5293C13.2693 32.1201 13.6185 32.6438 14.0616 33.0735C14.4913 33.5167 15.0285 33.8658 15.6059 34.0807C16.0759 34.2687 16.7876 34.4835 18.1036 34.5507C19.527 34.6178 19.9433 34.6313 23.5422 34.6313C27.1411 34.6313 27.5708 34.6178 28.9808 34.5507C30.2968 34.497 31.0085 34.2687 31.4785 34.0807C32.6468 33.6241 33.5868 32.6975 34.0299 31.5293C34.2179 31.0593 34.4328 30.3475 34.4999 29.0315C34.5671 27.6081 34.5805 27.1918 34.5805 23.593C34.5805 19.9941 34.5671 19.5644 34.4999 18.1544C34.4462 16.8384 34.2179 16.1267 34.0299 15.6567ZM23.5288 30.5221C19.715 30.5221 16.613 27.4201 16.613 23.6064C16.613 19.7927 19.715 16.6907 23.5288 16.6907C27.3425 16.6907 30.4445 19.7927 30.4445 23.6064C30.4445 27.4201 27.3425 30.5221 23.5288 30.5221ZM30.7131 18.0335C29.8268 18.0335 29.1016 17.3084 29.1016 16.4221C29.1016 15.5358 29.8268 14.8107 30.7131 14.8107C31.5993 14.8107 32.3245 15.5358 32.3245 16.4221C32.3245 17.3084 31.5993 18.0335 30.7131 18.0335Z" fill="#737373"/>
<path fill-rule="evenodd" clip-rule="evenodd" d="M23.5281 19.1094C21.0438 19.1094 19.043 21.1237 19.043 23.5945C19.043 26.0654 21.0573 28.0797 23.5281 28.0797C25.999 28.0797 28.0133 26.0654 28.0133 23.5945C28.0133 21.1237 25.999 19.1094 23.5281 19.1094Z" fill="#737373"/>
<path fill-rule="evenodd" clip-rule="evenodd" d="M23.5273 0.09375C10.5553 0.09375 0.0273438 10.6217 0.0273438 23.5938C0.0273438 36.5658 10.5553 47.0938 23.5273 47.0938C36.4993 47.0938 47.0273 36.5658 47.0273 23.5938C47.0273 10.6217 36.4993 0.09375 23.5273 0.09375ZM36.9156 29.1532C36.8485 30.59 36.6202 31.5703 36.2845 32.4163C35.5862 34.2292 34.1493 35.6526 32.3499 36.3509C31.4905 36.6866 30.5236 36.9149 29.0868 36.982C27.6499 37.0492 27.1933 37.0626 23.5273 37.0626C19.8613 37.0626 19.4048 37.0492 17.9679 36.982C16.5311 36.9149 15.5508 36.6866 14.7048 36.3509C13.8051 36.0152 12.9859 35.478 12.3145 34.7932C11.6296 34.1217 11.0925 33.3026 10.7568 32.4029C10.4211 31.5435 10.1928 30.5766 10.1256 29.1398C10.0585 27.7029 10.0451 27.2463 10.0451 23.5803C10.0451 19.9143 10.0585 19.4578 10.1256 18.0209C10.1928 16.584 10.4211 15.6038 10.7568 14.7577C11.0925 13.858 11.6296 13.0389 12.3145 12.3675C12.9859 11.6826 13.8051 11.1455 14.7048 10.8097C15.5642 10.474 16.5445 10.2457 17.9813 10.1786C19.4182 10.1115 19.8748 10.098 23.5408 10.098C27.1933 10.098 27.6633 10.1115 29.1002 10.1786C30.5371 10.2457 31.5173 10.474 32.3633 10.8097C33.2631 11.1455 34.0822 11.6826 34.7536 12.3675C35.4385 13.0389 35.9622 13.858 36.3113 14.7577C36.6471 15.6172 36.8753 16.584 36.9425 18.0209C37.0096 19.4578 37.0231 19.9143 37.0231 23.5803C37.0231 27.2463 37.0096 27.7029 36.9425 29.1398L36.9156 29.1532Z" fill="#737373"/>
</g>
<defs>
<clipPath id="clip0_6823_193270">
<rect width="47" height="47" fill="white"/>
</clipPath>
</defs>
</svg>
