<svg width="47" height="47" viewBox="0 0 47 47" fill="none" xmlns="http://www.w3.org/2000/svg">
<g clip-path="url(#clip0_6766_189313)">
<path fill-rule="evenodd" clip-rule="evenodd" d="M36.2571 34.9143H30.8917V27.2426C30.8917 22.2 25.5143 22.6272 25.5143 27.2426V34.9143H20.1429V18.8283H25.5143V21.7588C27.856 17.4249 36.2571 17.1035 36.2571 25.9091V34.9143ZM14.7705 16.1143C13.2891 16.1143 12.0857 14.9134 12.0857 13.4277C12.0857 11.9473 13.2872 10.7429 14.7705 10.7429C16.2556 10.7429 17.4571 11.9473 17.4571 13.4277C17.4571 14.9134 16.2538 16.1143 14.7705 16.1143ZM12.0857 34.9143H17.4571V18.8H12.0857V34.9143ZM23.5 0C10.5221 0 0 10.5226 0 23.501C0 36.4774 10.5221 47 23.5 47C36.4779 47 47 36.4774 47 23.501C47 10.5226 36.4779 0 23.5 0Z" fill="#737373"/>
</g>
<defs>
<clipPath id="clip0_6766_189313">
<rect width="47" height="47" fill="white"/>
</clipPath>
</defs>
</svg>
