<svg width="47" height="47" viewBox="0 0 47 47" fill="none" xmlns="http://www.w3.org/2000/svg">
<g clip-path="url(#clip0_6766_189296)">
<path fill-rule="evenodd" clip-rule="evenodd" d="M34.8512 19.1156C35.2017 27.2211 29.422 36.2571 19.1881 36.2571C16.0767 36.2571 13.1815 35.3024 10.7429 33.6668C13.6663 34.0293 16.5843 33.178 18.9007 31.2819C16.4903 31.2362 14.4559 29.5684 13.7509 27.2801C14.5773 27.4459 15.4313 27.4118 16.2419 27.1808C13.5924 26.6235 11.7621 24.1271 11.8212 21.4575C12.5809 21.9003 13.4387 22.1476 14.3175 22.1773C11.8628 20.4625 11.1685 17.0744 12.6121 14.4827C15.3287 17.9701 19.3895 20.2637 23.9687 20.5041C23.1656 16.9012 25.7802 13.4286 29.3401 13.4286C30.1006 13.4315 30.8519 13.5952 31.5448 13.9087C32.2376 14.2223 32.8564 14.6788 33.3606 15.2481C34.6006 14.9928 35.7854 14.5195 36.8601 13.8502C36.4605 15.1691 35.6002 16.3005 34.4362 17.0382C35.5317 16.901 36.5991 16.5938 37.6 16.1277C36.8705 17.2802 35.9394 18.2919 34.8512 19.1142M23.5 0C10.5226 0 0 10.5226 0 23.5C0 36.4774 10.5226 47 23.5 47C36.4774 47 47 36.4774 47 23.5C47 10.5226 36.4774 0 23.5 0Z" fill="#737373"/>
</g>
<defs>
<clipPath id="clip0_6766_189296">
<rect width="47" height="47" fill="white"/>
</clipPath>
</defs>
</svg>
