<svg width="47" height="47" viewBox="0 0 47 47" fill="none" xmlns="http://www.w3.org/2000/svg">
<g clip-path="url(#clip0_6766_189325)">
<path fill-rule="evenodd" clip-rule="evenodd" d="M20.1429 18.8L29.5429 23.492L20.1429 28.2V18.8ZM31.348 33.3539C27.3156 33.6439 18.3338 33.6439 14.3072 33.3539C9.94098 33.0397 9.43261 30.7957 9.4 23.5C9.43261 16.1902 9.94673 13.9603 14.3072 13.6461C18.3338 13.3561 27.3176 13.3561 31.348 13.6461C35.7162 13.9603 36.2226 16.2043 36.2571 23.5C36.2226 30.8098 35.7104 33.0397 31.348 33.3539ZM23.5 0C10.5221 0 0 10.5221 0 23.5C0 36.4779 10.5221 47 23.5 47C36.4779 47 47 36.4779 47 23.5C47 10.5221 36.4779 0 23.5 0Z" fill="#737373"/>
</g>
<defs>
<clipPath id="clip0_6766_189325">
<rect width="47" height="47" fill="white"/>
</clipPath>
</defs>
</svg>
